<svg width="7" height="12" viewBox="0 0 7 12" fill="none" xmlns="http://www.w3.org/2000/svg">
<path d="M6.35366 6.35372L1.35366 11.3537C1.30721 11.4002 1.25206 11.437 1.19136 11.4622C1.13066 11.4873 1.06561 11.5003 0.999912 11.5003C0.934214 11.5003 0.86916 11.4873 0.808464 11.4622C0.747767 11.437 0.692617 11.4002 0.646162 11.3537C0.599706 11.3073 0.562856 11.2521 0.537715 11.1914C0.512574 11.1307 0.499634 11.0657 0.499634 11C0.499634 10.9343 0.512574 10.8692 0.537715 10.8085C0.562856 10.7478 0.599706 10.6927 0.646162 10.6462L5.29304 5.99997L0.646162 1.35372C0.552341 1.2599 0.499634 1.13265 0.499634 0.999973C0.499634 0.867291 0.552341 0.740043 0.646162 0.646223C0.739982 0.552402 0.86723 0.499695 0.999912 0.499695C1.13259 0.499695 1.25984 0.552402 1.35366 0.646223L6.35366 5.64622C6.40015 5.69266 6.43703 5.7478 6.46219 5.8085C6.48735 5.8692 6.5003 5.93427 6.5003 5.99997C6.5003 6.06568 6.48735 6.13074 6.46219 6.19144C6.43703 6.25214 6.40015 6.30729 6.35366 6.35372Z" fill="white"/>
</svg>
