<svg width="15" height="16" viewBox="0 0 15 16" fill="none" xmlns="http://www.w3.org/2000/svg">
<path d="M10.6441 8.72887L5.95664 13.4164C5.91309 13.4599 5.86139 13.4945 5.80448 13.518C5.74758 13.5416 5.68659 13.5537 5.625 13.5537C5.56341 13.5537 5.50242 13.5416 5.44552 13.518C5.38862 13.4945 5.33691 13.4599 5.29336 13.4164C5.24981 13.3728 5.21526 13.3211 5.19169 13.2642C5.16812 13.2073 5.15599 13.1463 5.15599 13.0847C5.15599 13.0231 5.16812 12.9622 5.19169 12.9053C5.21526 12.8483 5.24981 12.7966 5.29336 12.7531L9.64981 8.39723L5.29336 4.04137C5.2054 3.95342 5.15599 3.83412 5.15599 3.70973C5.15599 3.58534 5.2054 3.46605 5.29336 3.37809C5.38132 3.29014 5.50061 3.24072 5.625 3.24072C5.74939 3.24072 5.86869 3.29014 5.95664 3.37809L10.6441 8.06559C10.6877 8.10913 10.7223 8.16082 10.7459 8.21773C10.7695 8.27464 10.7816 8.33563 10.7816 8.39723C10.7816 8.45883 10.7695 8.51983 10.7459 8.57674C10.7223 8.63364 10.6877 8.68534 10.6441 8.72887Z" fill="black"/>
</svg>
