<svg width="16" height="16" viewBox="0 0 16 16" fill="none" xmlns="http://www.w3.org/2000/svg">
<path d="M14.9899 6.61914L8.73985 0.720704L8.73282 0.714454C8.53201 0.53054 8.26958 0.428528 7.99728 0.428528C7.72497 0.428528 7.46254 0.53054 7.26173 0.714454L7.2547 0.720704L1.0047 6.61914C0.894152 6.72206 0.80612 6.84677 0.746151 6.9854C0.686182 7.12402 0.655576 7.27357 0.656261 7.42461V14.6473C0.656261 14.9373 0.771495 15.2155 0.976613 15.4207C1.18173 15.6258 1.45993 15.741 1.75001 15.741H5.50001C5.79009 15.741 6.06829 15.6258 6.27341 15.4207C6.47853 15.2155 6.59376 14.9373 6.59376 14.6473V10.8973C6.59376 10.8558 6.61022 10.8161 6.63953 10.7868C6.66883 10.7575 6.70857 10.741 6.75001 10.741H9.25001C9.29145 10.741 9.33119 10.7575 9.3605 10.7868C9.3898 10.8161 9.40626 10.8558 9.40626 10.8973V14.6473C9.40626 14.9373 9.5215 15.2155 9.72661 15.4207C9.93173 15.6258 10.2099 15.741 10.5 15.741H14.25C14.5401 15.741 14.8183 15.6258 15.0234 15.4207C15.2285 15.2155 15.3438 14.9373 15.3438 14.6473V7.42461C15.3437 7.27317 15.3123 7.12337 15.2514 6.98472C15.1904 6.84607 15.1014 6.72158 14.9899 6.61914ZM14.4063 14.6473C14.4063 14.6887 14.3898 14.7284 14.3605 14.7578C14.3312 14.7871 14.2915 14.8035 14.25 14.8035H10.5C10.4586 14.8035 10.4188 14.7871 10.3895 14.7578C10.3602 14.7284 10.3438 14.6887 10.3438 14.6473V10.8973C10.3438 10.6072 10.2285 10.329 10.0234 10.1239C9.81829 9.91875 9.54009 9.80352 9.25001 9.80352H6.75001C6.45993 9.80352 6.18173 9.91875 5.97661 10.1239C5.7715 10.329 5.65626 10.6072 5.65626 10.8973V14.6473C5.65626 14.6887 5.6398 14.7284 5.6105 14.7578C5.58119 14.7871 5.54145 14.8035 5.50001 14.8035H1.75001C1.70857 14.8035 1.66883 14.7871 1.63953 14.7578C1.61022 14.7284 1.59376 14.6887 1.59376 14.6473V7.42461C1.59371 7.40286 1.59821 7.38135 1.60695 7.36144C1.61569 7.34153 1.6285 7.32366 1.64454 7.30899L1.65157 7.30274L7.89689 1.40586C7.92535 1.38102 7.96185 1.36734 7.99962 1.36734C8.0374 1.36734 8.07389 1.38102 8.10236 1.40586L14.3484 7.30352L14.3547 7.30977C14.3709 7.32438 14.3838 7.34221 14.3927 7.36212C14.4016 7.38204 14.4062 7.40359 14.4063 7.42539V14.6473Z" fill="black"/>
</svg>
