<svg width="388" height="70" viewBox="0 0 388 70" fill="none" xmlns="http://www.w3.org/2000/svg">
<path fill-rule="evenodd" clip-rule="evenodd" d="M28.6613 0.651818C7.76558 5.53 -4.46795 25.535 1.52217 45.0309C5.9867 59.5616 21.0829 70.4473 36.1299 69.9859L40.0062 69.8672L41.7393 65.5568C49.4439 46.3926 48.6093 21.4105 39.6662 3.52503L37.9435 0.0791454L34.8494 0.00443139C33.0718 -0.038673 30.4389 0.236784 28.6613 0.651818ZM52.0673 5.70899C57.972 18.0081 56.908 39.183 49.3449 59.9122C47.2149 65.7497 47.4447 65.7078 51.6077 59.5008C59.2657 48.0814 63.3309 32.4386 62.7443 16.6477C62.5524 11.4854 62.3891 10.2945 61.7793 9.61671C60.6865 8.40117 54.2797 4.22292 52.3552 3.47044L50.6782 2.81484L52.0673 5.70899ZM69.3817 27.9028C68.885 41.9077 63.3095 54.4995 53.2636 64.3039C49.8668 67.6192 49.9691 67.6915 54.7117 65.322C69.1717 58.0977 76.7728 38.9298 71.1296 23.9208C69.8025 20.3916 69.6345 20.7742 69.3817 27.9028Z" fill="#F36E29"/>
<path fill-rule="evenodd" clip-rule="evenodd" d="M176.823 10.61C168.701 11.6976 163.911 16.624 164.264 23.5256C164.573 29.564 167.7 32.6523 177.855 36.9499C185.405 40.145 187.4 41.8961 187.543 45.4511C187.885 53.9679 176.958 56.3468 165.709 50.2043C163.631 49.0701 162.833 49.861 162.987 52.8998C163.11 55.3408 164.294 56.3592 168.628 57.7528C182.241 62.1302 194.823 56.1476 194.891 45.2647C194.932 38.7174 192.093 35.7901 181.204 31.147C173.049 27.67 170.78 25.3778 171.455 21.3005C172.432 15.4071 180.15 13.9911 188.584 18.1583C190.625 19.1667 190.95 19.2534 191.431 18.9166C191.973 18.5369 192.246 16.0585 191.906 14.5962C191.316 12.0524 182.82 9.80689 176.823 10.61ZM250.231 10.6746C237.659 12.1976 230.764 20.8523 230.764 35.1079C230.764 51.5277 238.818 59.5978 254.67 59.0609C269.517 58.5579 277.528 49.3504 277.133 33.2418C276.73 16.7539 267.053 8.63675 250.231 10.6746ZM87.3596 11.0062C86.1869 11.1926 85.8232 11.6381 86.0763 12.5782C86.2958 13.3933 103.228 57.1213 103.524 57.6371C104.133 58.6986 110.047 59.0989 111.792 58.1968C112.393 57.8857 111.805 59.3384 121.282 34.7784C130.893 9.8691 130.32 11.5589 129.306 11.1213C128.708 10.8632 124.146 10.8924 123.613 11.1578C122.986 11.4693 123.199 10.9212 115.561 31.8787C111.616 42.701 108.347 51.5558 108.296 51.5558C108.245 51.5558 104.914 42.7641 100.892 32.0185C92.9146 10.6991 93.2483 11.5378 92.6129 11.2092C92.0974 10.9426 88.6084 10.8079 87.3596 11.0062ZM143.912 11.0157C143.087 11.1465 142.557 11.3578 142.376 11.6285C142.32 11.7131 142.273 22.1767 142.271 34.8808L142.269 57.9795L142.677 58.1903C144.3 59.0296 148.905 58.6659 149.17 57.6777C149.352 56.9981 149.265 12.0819 149.081 11.7181C148.758 11.0794 145.934 10.6956 143.912 11.0157ZM210.982 10.9514C210.828 10.9869 210.372 11.0829 209.969 11.1644C208.697 11.4216 208.815 9.00946 208.815 34.7796C208.815 54.7697 208.841 57.682 209.022 57.9411C209.627 58.8043 214.614 58.866 215.56 58.0219C215.914 57.7062 215.944 11.8712 215.59 11.5179C215.167 11.0947 212.029 10.7089 210.982 10.9514ZM363.569 11.0102C362.629 11.1314 362.075 11.3871 361.743 11.8522C361.504 12.1864 344.642 55.7434 344.275 56.9735C344.057 57.7041 344.236 58.1955 344.805 58.433C345.531 58.7361 349.845 58.6613 350.503 58.3342L351.061 58.0565L358.399 37.9648C362.435 26.9144 365.776 17.9182 365.824 17.9732C365.872 18.0283 369.228 26.9437 373.282 37.7853C381.215 58.9987 380.829 58.0419 381.585 58.3782C382.403 58.7424 386.643 58.708 387.411 58.3311C388.478 57.8071 388.98 59.2978 379.435 34.6235C369.942 10.0848 370.581 11.6601 370.011 11.3658C369.163 10.9273 365.696 10.7359 363.569 11.0102ZM325.654 11.2024C324.275 11.5909 324.415 9.29605 324.461 30.7398C324.482 41.0993 324.493 49.5649 324.484 49.552C324.474 49.5391 323.364 47.5419 322.016 45.1136C319.431 40.4596 318.864 39.4821 309.537 23.6029C301.774 10.3865 302.535 11.1532 297.175 11.1532C293.739 11.1532 292.835 11.4298 292.331 12.6351C291.996 13.437 292.045 57.7217 292.381 58.0219C293.315 58.8552 298.017 58.8159 298.866 57.9676C299.149 57.6847 299.149 57.6261 299.103 38.0746L299.056 18.4655L299.873 20.0169C301.397 22.913 302.715 25.187 311.426 39.9523C323.112 59.7593 322.093 58.5472 327.059 58.545C329.572 58.544 330.45 58.2247 331.102 57.0737L331.416 56.5187L331.418 34.2071C331.421 9.51554 331.503 11.7691 330.582 11.2851C330.075 11.0187 326.517 10.959 325.654 11.2024ZM258.025 16.2421C265.586 17.6071 269.397 23.2355 269.725 33.5214C270.137 46.4634 264.535 53.5094 253.831 53.5117C243.128 53.5143 238.173 47.5856 238.173 34.7768C238.173 24.0046 242.613 17.3762 250.615 16.2011C251.192 16.1164 251.821 16.0197 252.013 15.986C252.737 15.8594 256.883 16.036 258.025 16.2421Z" fill="black"/>
</svg>
