<svg width="15" height="15" viewBox="0 0 15 15" fill="none" xmlns="http://www.w3.org/2000/svg">
<path d="M5.9375 14.2188C5.9375 14.3431 5.88811 14.4623 5.80021 14.5502C5.7123 14.6381 5.59307 14.6875 5.46875 14.6875H1.09375C0.803669 14.6875 0.52547 14.5723 0.320352 14.3671C0.115234 14.162 0 13.8838 0 13.5938V1.09375C0 0.803669 0.115234 0.52547 0.320352 0.320352C0.52547 0.115234 0.803669 0 1.09375 0H5.46875C5.59307 0 5.7123 0.049386 5.80021 0.137294C5.88811 0.225201 5.9375 0.34443 5.9375 0.46875C5.9375 0.59307 5.88811 0.712299 5.80021 0.800206C5.7123 0.888114 5.59307 0.9375 5.46875 0.9375H1.09375C1.05231 0.9375 1.01257 0.953962 0.983264 0.983264C0.953962 1.01257 0.9375 1.05231 0.9375 1.09375V13.5938C0.9375 13.6352 0.953962 13.6749 0.983264 13.7042C1.01257 13.7335 1.05231 13.75 1.09375 13.75H5.46875C5.59307 13.75 5.7123 13.7994 5.80021 13.8873C5.88811 13.9752 5.9375 14.0944 5.9375 14.2188ZM14.55 7.0125L11.425 3.8875C11.3361 3.8047 11.2186 3.75962 11.0972 3.76177C10.9757 3.76391 10.8599 3.8131 10.774 3.89899C10.6881 3.98487 10.6389 4.10074 10.6368 4.22217C10.6346 4.34361 10.6797 4.46114 10.7625 4.55L13.0867 6.875H5.46875C5.34443 6.875 5.2252 6.92439 5.13729 7.01229C5.04939 7.1002 5 7.21943 5 7.34375C5 7.46807 5.04939 7.5873 5.13729 7.67521C5.2252 7.76311 5.34443 7.8125 5.46875 7.8125H13.0867L10.7625 10.1375C10.7164 10.1804 10.6795 10.2322 10.6539 10.2897C10.6283 10.3472 10.6145 10.4092 10.6134 10.4722C10.6123 10.5351 10.6238 10.5976 10.6474 10.656C10.671 10.7144 10.7061 10.7674 10.7506 10.8119C10.7951 10.8564 10.8481 10.8915 10.9065 10.9151C10.9649 10.9387 11.0274 10.9502 11.0903 10.9491C11.1533 10.948 11.2153 10.9342 11.2728 10.9086C11.3303 10.883 11.3821 10.8461 11.425 10.8L14.55 7.675C14.6378 7.58711 14.6871 7.46797 14.6871 7.34375C14.6871 7.21953 14.6378 7.10039 14.55 7.0125Z" fill="white"/>
</svg>
