<svg width="73" height="70" viewBox="0 0 73 70" fill="none" xmlns="http://www.w3.org/2000/svg">
<path fill-rule="evenodd" clip-rule="evenodd" d="M28.6613 0.651818C7.76558 5.53 -4.46795 25.535 1.52217 45.0309C5.9867 59.5616 21.0829 70.4473 36.1299 69.9859L40.0062 69.8672L41.7393 65.5568C49.4439 46.3926 48.6093 21.4105 39.6662 3.52503L37.9435 0.0791454L34.8494 0.00443139C33.0718 -0.038673 30.4389 0.236784 28.6613 0.651818ZM52.0673 5.70899C57.972 18.0081 56.908 39.183 49.3449 59.9122C47.2149 65.7497 47.4447 65.7078 51.6077 59.5008C59.2657 48.0814 63.3309 32.4386 62.7443 16.6477C62.5524 11.4854 62.3891 10.2945 61.7793 9.61671C60.6865 8.40117 54.2797 4.22292 52.3552 3.47044L50.6782 2.81484L52.0673 5.70899ZM69.3817 27.9028C68.885 41.9077 63.3095 54.4995 53.2636 64.3039C49.8668 67.6192 49.9691 67.6915 54.7117 65.322C69.1717 58.0977 76.7728 38.9298 71.1296 23.9208C69.8025 20.3916 69.6346 20.7742 69.3817 27.9028Z" fill="#F36E29"/>
</svg>
