<svg width="12" height="14" viewBox="0 0 12 14" fill="none" xmlns="http://www.w3.org/2000/svg">
<path d="M11.5 2.5H9V2C9 1.60218 8.84196 1.22064 8.56066 0.93934C8.27936 0.658035 7.89782 0.5 7.5 0.5H4.5C4.10218 0.5 3.72064 0.658035 3.43934 0.93934C3.15804 1.22064 3 1.60218 3 2V2.5H0.5C0.367392 2.5 0.240215 2.55268 0.146447 2.64645C0.0526785 2.74021 0 2.86739 0 3C0 3.13261 0.0526785 3.25979 0.146447 3.35355C0.240215 3.44732 0.367392 3.5 0.5 3.5H1V12.5C1 12.7652 1.10536 13.0196 1.29289 13.2071C1.48043 13.3946 1.73478 13.5 2 13.5H10C10.2652 13.5 10.5196 13.3946 10.7071 13.2071C10.8946 13.0196 11 12.7652 11 12.5V3.5H11.5C11.6326 3.5 11.7598 3.44732 11.8536 3.35355C11.9473 3.25979 12 3.13261 12 3C12 2.86739 11.9473 2.74021 11.8536 2.64645C11.7598 2.55268 11.6326 2.5 11.5 2.5ZM4 2C4 1.86739 4.05268 1.74021 4.14645 1.64645C4.24021 1.55268 4.36739 1.5 4.5 1.5H7.5C7.63261 1.5 7.75979 1.55268 7.85355 1.64645C7.94732 1.74021 8 1.86739 8 2V2.5H4V2ZM10 12.5H2V3.5H10V12.5ZM5 6V10C5 10.1326 4.94732 10.2598 4.85355 10.3536C4.75979 10.4473 4.63261 10.5 4.5 10.5C4.36739 10.5 4.24021 10.4473 4.14645 10.3536C4.05268 10.2598 4 10.1326 4 10V6C4 5.86739 4.05268 5.74021 4.14645 5.64645C4.24021 5.55268 4.36739 5.5 4.5 5.5C4.63261 5.5 4.75979 5.55268 4.85355 5.64645C4.94732 5.74021 5 5.86739 5 6ZM8 6V10C8 10.1326 7.94732 10.2598 7.85355 10.3536C7.75979 10.4473 7.63261 10.5 7.5 10.5C7.36739 10.5 7.24021 10.4473 7.14645 10.3536C7.05268 10.2598 7 10.1326 7 10V6C7 5.86739 7.05268 5.74021 7.14645 5.64645C7.24021 5.55268 7.36739 5.5 7.5 5.5C7.63261 5.5 7.75979 5.55268 7.85355 5.64645C7.94732 5.74021 8 5.86739 8 6Z" fill="black"/>
</svg>
