<svg width="16" height="17" viewBox="0 0 16 17" fill="none" xmlns="http://www.w3.org/2000/svg">
<path d="M11.2813 2.77231C11.2813 2.64798 11.3307 2.52876 11.4186 2.44085C11.5065 2.35294 11.6257 2.30356 11.7501 2.30356H13.1563V0.897305C13.1563 0.772985 13.2057 0.653756 13.2936 0.565849C13.3815 0.477941 13.5007 0.428555 13.6251 0.428555C13.7494 0.428555 13.8686 0.477941 13.9565 0.565849C14.0444 0.653756 14.0938 0.772985 14.0938 0.897305V2.30356H15.5001C15.6244 2.30356 15.7436 2.35294 15.8315 2.44085C15.9194 2.52876 15.9688 2.64798 15.9688 2.77231C15.9688 2.89663 15.9194 3.01585 15.8315 3.10376C15.7436 3.19167 15.6244 3.24106 15.5001 3.24106H14.0938V4.64731C14.0938 4.77163 14.0444 4.89085 13.9565 4.97876C13.8686 5.06667 13.7494 5.11606 13.6251 5.11606C13.5007 5.11606 13.3815 5.06667 13.2936 4.97876C13.2057 4.89085 13.1563 4.77163 13.1563 4.64731V3.24106H11.7501C11.6257 3.24106 11.5065 3.19167 11.4186 3.10376C11.3307 3.01585 11.2813 2.89663 11.2813 2.77231ZM15.8586 7.06918C16.1385 8.73348 15.8823 10.4437 15.1268 11.9528C14.3714 13.462 13.1559 14.692 11.6559 15.4654C10.1558 16.2387 8.44882 16.5153 6.78131 16.2553C5.1138 15.9952 3.57207 15.212 2.37871 14.0186C1.18535 12.8253 0.402111 11.2836 0.142074 9.61604C-0.117964 7.94853 0.158656 6.24152 0.931996 4.74147C1.70534 3.24141 2.93538 2.02594 4.44454 1.27052C5.9537 0.515099 7.66388 0.258831 9.32818 0.538711C9.38979 0.547937 9.44895 0.569353 9.50219 0.601706C9.55543 0.63406 9.60168 0.676702 9.63825 0.72714C9.67482 0.777577 9.70097 0.834799 9.71517 0.89546C9.72937 0.95612 9.73133 1.019 9.72095 1.08043C9.71056 1.14186 9.68804 1.2006 9.65469 1.25322C9.62134 1.30585 9.57783 1.35129 9.52671 1.3869C9.4756 1.42252 9.41789 1.44758 9.35697 1.46064C9.29606 1.47369 9.23315 1.47447 9.17193 1.46293C8.78462 1.39857 8.39267 1.36617 8.00005 1.36605C6.6276 1.36533 5.28499 1.76651 4.13792 2.52006C2.99085 3.27361 2.08955 4.34656 1.54525 5.60646C1.00096 6.86637 0.837513 8.25807 1.07508 9.6098C1.31264 10.9615 1.94082 12.2141 2.88208 13.2129C3.61859 12.0677 4.71947 11.2041 6.00708 10.7614C5.36503 10.3337 4.87762 9.71082 4.61693 8.98477C4.35624 8.25871 4.33611 7.46804 4.5595 6.72966C4.78289 5.99128 5.23796 5.34437 5.85741 4.8846C6.47687 4.42483 7.22783 4.17659 7.99927 4.17659C8.77071 4.17659 9.52167 4.42483 10.1411 4.8846C10.7606 5.34437 11.2156 5.99128 11.439 6.72966C11.6624 7.46804 11.6423 8.25871 11.3816 8.98477C11.1209 9.71082 10.6335 10.3337 9.99146 10.7614C11.2791 11.2041 12.3799 12.0677 13.1165 13.2129C14.347 11.9116 15.0322 10.1883 15.0313 8.39731C15.0312 8.00469 14.9988 7.61274 14.9344 7.22543C14.9229 7.16421 14.9237 7.1013 14.9367 7.04038C14.9498 6.97946 14.9748 6.92176 15.0105 6.87064C15.0461 6.81953 15.0915 6.77602 15.1441 6.74267C15.1968 6.70932 15.2555 6.68679 15.3169 6.67641C15.3784 6.66602 15.4412 6.66799 15.5019 6.68219C15.5626 6.69638 15.6198 6.72253 15.6702 6.7591C15.7207 6.79567 15.7633 6.84193 15.7956 6.89517C15.828 6.94841 15.8494 7.00757 15.8586 7.06918ZM8.00005 10.4286C8.52541 10.4286 9.03897 10.2728 9.47578 9.9809C9.9126 9.68902 10.2531 9.27417 10.4541 8.78881C10.6552 8.30344 10.7078 7.76936 10.6053 7.2541C10.5028 6.73883 10.2498 6.26554 9.8783 5.89405C9.50682 5.52257 9.03352 5.26959 8.51826 5.16709C8.003 5.0646 7.46891 5.1172 6.98355 5.31825C6.49818 5.5193 6.08333 5.85975 5.79146 6.29657C5.49959 6.73339 5.3438 7.24695 5.3438 7.77231C5.3438 8.47679 5.62365 9.15241 6.1218 9.65056C6.61994 10.1487 7.29557 10.4286 8.00005 10.4286ZM8.00005 15.4286C9.60877 15.4311 11.1692 14.8793 12.4188 13.8661C11.9604 13.1038 11.3125 12.473 10.5382 12.0352C9.76397 11.5973 8.88957 11.3672 8.00005 11.3672C7.11053 11.3672 6.23614 11.5973 5.46185 12.0352C4.68757 12.473 4.03973 13.1038 3.5813 13.8661C4.83085 14.8793 6.39133 15.4311 8.00005 15.4286Z" fill="black"/>
</svg>
