<svg width="82" height="14" viewBox="0 0 82 14" fill="none" xmlns="http://www.w3.org/2000/svg">
<path fill-rule="evenodd" clip-rule="evenodd" d="M25.2985 0.228751C23.1245 0.519845 21.8423 1.8385 21.9368 3.68584C22.0195 5.30214 22.8564 6.12876 25.5746 7.2791C27.5955 8.13435 28.1296 8.60304 28.1678 9.5546C28.2594 11.8343 25.3345 12.471 22.3235 10.8269C21.7674 10.5233 21.5537 10.735 21.5948 11.5484C21.6279 12.2018 21.9448 12.4744 23.1048 12.8474C26.7486 14.0191 30.1165 12.4177 30.1346 9.50472C30.1455 7.75221 29.3858 6.96866 26.471 5.72585C24.2883 4.79517 23.6808 4.18162 23.8616 3.09026C24.123 1.51276 26.189 1.13377 28.4464 2.24919C28.9927 2.51911 29.0797 2.54231 29.2084 2.45216C29.3534 2.35053 29.4265 1.68714 29.3357 1.29572C29.1777 0.614819 26.9036 0.0137709 25.2985 0.228751ZM44.9475 0.24604C41.5824 0.653698 39.7366 2.97029 39.7366 6.78605C39.7366 11.1811 41.8925 13.3413 46.1355 13.1975C50.1096 13.0629 52.2538 10.5983 52.1483 6.28656C52.0403 1.87327 49.4502 -0.299438 44.9475 0.24604ZM1.35183 0.334801C1.03795 0.384682 0.940581 0.503941 1.00835 0.755557C1.0671 0.973755 5.59939 12.6784 5.67861 12.8164C5.84158 13.1006 7.42461 13.2077 7.89158 12.9662C8.05256 12.883 7.89499 13.2718 10.4317 6.69785C13.0044 0.0304233 12.851 0.482724 12.5797 0.365598C12.4196 0.29652 11.1985 0.304341 11.0557 0.375365C10.888 0.458738 10.9451 0.31205 8.9004 5.92171C7.84458 8.81851 6.96954 11.1886 6.95592 11.1886C6.94226 11.1886 6.05049 8.83538 4.97417 5.95913C2.83873 0.252588 2.92806 0.477074 2.75798 0.389136C2.62001 0.317775 1.68611 0.281701 1.35183 0.334801ZM16.4892 0.337346C16.2682 0.372334 16.1264 0.428914 16.0781 0.50136C16.0629 0.523999 16.0503 3.32477 16.05 6.72528L16.0494 12.9081L16.1586 12.9645C16.593 13.1891 17.8256 13.0918 17.8965 12.8273C17.9452 12.6454 17.9221 0.622714 17.8728 0.525346C17.7863 0.354372 17.0303 0.251653 16.4892 0.337346ZM34.4416 0.320132C34.4004 0.329637 34.2785 0.355308 34.1706 0.377124C33.83 0.445977 33.8616 -0.199675 33.8616 6.69819C33.8616 12.0489 33.8686 12.8284 33.9171 12.8978C34.079 13.1289 35.414 13.1454 35.6671 12.9194C35.7618 12.8349 35.7697 0.566322 35.6752 0.47176C35.5619 0.358488 34.7219 0.255208 34.4416 0.320132ZM75.2844 0.335849C75.0329 0.368292 74.8845 0.436734 74.7956 0.561232C74.7317 0.650705 70.2183 12.3095 70.1201 12.6388C70.0618 12.8344 70.1095 12.9659 70.2619 13.0295C70.4562 13.1106 71.6108 13.0906 71.787 13.003L71.9366 12.9287L73.9007 7.55078C74.981 4.59291 75.8753 2.18491 75.888 2.19965C75.9008 2.21439 76.7992 4.60077 77.8844 7.50273C80.0078 13.1809 79.9045 12.9248 80.1068 13.0148C80.3258 13.1123 81.4607 13.1031 81.6662 13.0022C81.9519 12.8619 82.0861 13.261 79.5312 6.65639C76.9904 0.088163 77.1612 0.509817 77.0089 0.431047C76.7819 0.313659 75.8537 0.26243 75.2844 0.335849ZM65.1357 0.387302C64.7667 0.491293 64.8043 -0.122963 64.8164 5.61685C64.8222 8.38978 64.825 10.6557 64.8225 10.6523C64.8201 10.6489 64.5228 10.1143 64.1619 9.46427C63.4701 8.21854 63.3184 7.9569 60.8218 3.70653C58.7438 0.168916 58.9476 0.37413 57.5129 0.37413C56.5932 0.37413 56.3511 0.448185 56.2163 0.770787C56.1266 0.985431 56.1396 12.8391 56.2296 12.9194C56.4796 13.1425 57.7384 13.132 57.9654 12.9049C58.0412 12.8292 58.0414 12.8135 58.0289 7.58015L58.0165 2.33141L58.235 2.74666C58.643 3.52186 58.9957 4.13055 61.3274 8.08274C64.4553 13.3845 64.1826 13.06 65.5117 13.0594C66.1846 13.0592 66.4194 12.9737 66.5939 12.6656L66.6781 12.5171L66.6787 6.54495C66.6794 -0.0642133 66.7014 0.539005 66.4548 0.409455C66.3191 0.338132 65.3668 0.322153 65.1357 0.387302ZM47.0336 1.73627C49.0576 2.10165 50.0777 3.60819 50.1653 6.3614C50.2756 9.82557 48.7761 11.7116 45.911 11.7122C43.0461 11.7129 41.7199 10.1259 41.7199 6.69744C41.7199 3.81404 42.9083 2.03983 45.0503 1.72531C45.2046 1.70263 45.373 1.67674 45.4245 1.66772C45.6182 1.63385 46.728 1.68111 47.0336 1.73627Z" fill="white"/>
</svg>
